Coordinates
version=1
nRows=8
nColumns=63
inDegrees=yes

Units are S.I. units (second, meters, Newtons, ...)
If the header above contains a line with 'inDegrees', this indicates whether rotational values are in degrees (yes) or radians (no).

endheader
time	pelvis_tilt	pelvis_list	pelvis_rotation	pelvis_tx	pelvis_ty	pelvis_tz	hip_flexion_r	hip_adduction_r	hip_rotation_r	knee_angle_r	knee_angle_r_beta	ankle_angle_r	subtalar_angle_r	mtp_angle_r	hip_flexion_l	hip_adduction_l	hip_rotation_l	knee_angle_l	knee_angle_l_beta	ankle_angle_l	subtalar_angle_l	mtp_angle_l	L5_S1_Flex_Ext	L5_S1_Lat_Bending	L5_S1_axial_rotation	L4_L5_Flex_Ext	L4_L5_Lat_Bending	L4_L5_axial_rotation	L3_L4_Flex_Ext	L3_L4_Lat_Bending	L3_L4_axial_rotation	L2_L3_Flex_Ext	L2_L3_Lat_Bending	L2_L3_axial_rotation	L1_L2_Flex_Ext	L1_L2_Lat_Bending	L1_L2_axial_rotation	L1_T12_Flex_Ext	L1_T12_Lat_Bending	L1_T12_axial_rotation	Abs_r3	Abs_r2	Abs_r1	Abs_t1	Abs_t2	neck_flexion	neck_bending	neck_rotation	arm_flex_r	arm_add_r	arm_rot_r	elbow_flex_r	pro_sup_r	wrist_flex_r	wrist_dev_r	arm_flex_l	arm_add_l	arm_rot_l	elbow_flex_l	pro_sup_l	wrist_flex_l	wrist_dev_l
      0.75000000	      1.49797527	      0.29037729	     88.77930695	      0.12119159	      0.57294028	      0.84097569	     -9.38599941	      0.89320651	     10.07520749	      1.14446138	      0.01997462	     19.31468191	     -5.51701462	      0.00000000	     -6.97578710	     -2.10890061	    -11.45402252	      2.71560118	      0.04739618	     28.54855425	      5.27461925	      0.00000000	     -0.23026456	      0.14228826	      0.91055936	     -0.42762432	      0.18924339	      0.96746932	     -0.37830165	      0.34595967	      0.96746932	     -0.26316937	      0.34595967	      0.79673944	     -0.21382367	      0.29015422	      0.73982948	     -0.13157317	      0.22040451	      0.68291952	     -1.64475675	      1.60959325	      5.06425798	      0.00000000	      0.00000000	     18.58528723	     -4.15631830	     -5.17003767	     24.10971525	     -6.54632307	    -58.92592880	    129.05411325	     84.35055634	     -9.32851329	     24.54977983	     19.06874039	    -17.56998409	    -69.14376005	    127.94580863	     87.26368966	     -9.73700805	     18.61330949
      0.76666667	      1.24837482	      0.21906249	     89.89845136	      0.12115971	      0.57373754	      0.84106565	     -9.47130666	      0.87651088	      8.96286763	      1.01611054	      0.01773447	     19.02460774	     -5.57164875	      0.00000000	     -6.60001868	     -2.10783886	    -11.19103051	      3.09991391	      0.05410370	     28.24381684	      6.10966972	      0.00000000	     -0.21927169	      0.09224251	      0.75742105	     -0.40720945	      0.12268254	      0.80475987	     -0.36024146	      0.22427844	      0.80475987	     -0.25060561	      0.22427844	      0.66274342	     -0.20361569	      0.18810093	      0.61540460	     -0.12529184	      0.14288365	      0.56806579	     -1.56623574	      1.04346572	      4.21254866	      0.00000000	      0.00000000	     17.84485783	     -2.87804497	     -5.55451773	     25.52910057	     -6.96761999	    -62.80718265	    134.03086037	     86.84097624	    -11.22369904	     24.95668047	     20.88791636	    -18.77733473	    -70.12123601	    132.02006629	     84.15871387	     -9.92393488	     17.01576805
      0.78333333	      1.03028838	      0.12871791	     90.74499395	      0.12156387	      0.57450773	      0.84138491	     -9.45887013	      0.86064995	      7.72109523	      0.93826290	      0.01637578	     18.91183433	     -4.99155437	      0.00000000	     -6.24459656	     -2.10096249	    -11.13479143	      3.46204001	      0.06042400	     27.90296326	      6.91301977	      0.00000000	     -0.20901055	      0.04071212	      0.66844946	     -0.38815349	      0.05414712	      0.71022756	     -0.34338343	      0.09898745	      0.71022756	     -0.23887815	      0.09898745	      0.58489328	     -0.19408719	      0.08302015	      0.54311519	     -0.11942863	      0.06306307	      0.50133710	     -1.49294144	      0.46054364	      3.71771539	      0.00000000	      0.00000000	     17.01963878	     -2.24066792	     -6.57688003	     26.82592392	     -7.59818159	    -66.22157933	    138.31388509	     88.15428893	    -13.85819468	     24.44809460	     22.62884242	    -19.88409386	    -68.45026678	    135.72677783	     71.74564725	    -12.70143611	     13.55666664
      0.80000000	      0.97528993	      0.02875492	     91.00922584	      0.12215978	      0.57515194	      0.84184721	     -9.35538732	      0.88967676	      7.26595430	      0.89563678	      0.01563181	     18.80117250	     -4.58672789	      0.00000000	     -6.02910230	     -2.13483981	    -10.95254367	      3.64837840	      0.06367622	     27.49023829	      6.96252218	      0.00000000	     -0.19871621	      0.03219107	      0.58272692	     -0.36903588	      0.04281412	      0.61914735	     -0.32647087	      0.07826936	      0.61914735	     -0.22711276	      0.07826936	      0.50988606	     -0.18452788	      0.06564402	      0.47346562	     -0.11354644	      0.04986396	      0.43704519	     -1.41941004	      0.36415179	      3.24095232	      0.00000000	      0.00000000	     16.53336985	     -2.05130290	     -5.76016708	     28.56643082	     -7.86290391	    -68.24073108	    141.45128381	     88.69169837	    -15.19209734	     20.36416673	     23.36793598	    -20.92869148	    -66.62097616	    139.49687510	     58.95269931	    -14.74453524	      9.56382958
      0.81666667	      0.80082432	     -0.05303111	     91.49269444	      0.12274145	      0.57569188	      0.84287465	     -9.24840393	      0.84965247	      6.89010633	      0.86164067	      0.01503847	     18.66475966	     -4.69709577	      0.00000000	     -5.73605318	     -2.08532677	    -10.45707502	      3.91567361	      0.06834140	     27.10276135	      6.92484406	      0.00000000	     -0.19424985	      0.00056086	      0.51756764	     -0.36074141	      0.00074594	      0.54991561	     -0.31913309	      0.00136368	      0.54991561	     -0.22200816	      0.00136368	      0.45287168	     -0.18038042	      0.00114371	      0.42052370	     -0.11099437	      0.00086877	      0.38817573	     -1.38750729	      0.00634457	      2.87855592	      0.00000000	      0.00000000	     16.13324601	     -1.67319169	     -5.59985834	     30.18698876	     -7.88545590	    -70.35876483	    144.21775100	     88.85435947	    -16.46586835	     15.11301094	     24.69692727	    -21.74913785	    -64.09611393	    142.94395430	     56.36690890	    -15.78884254	      8.29165180
      0.83333333	      0.83427032	     -0.05381804	     91.47618098	      0.12323884	      0.57623326	      0.84389127	     -9.16754273	      0.90626132	      6.92552563	      0.87129033	      0.01520688	     18.55074263	     -4.64082595	      0.00000000	     -5.68427050	     -2.13698531	    -10.49341129	      3.98603330	      0.06956941	     26.75315691	      6.89087881	      0.00000000	     -0.19046412	      0.01752599	      0.44575221	     -0.35371093	      0.02330957	      0.47361172	     -0.31291351	      0.04261269	      0.47361172	     -0.21768145	      0.04261269	      0.39003318	     -0.17686499	      0.03573900	      0.36217367	     -0.10883120	      0.02714776	      0.33431416	     -1.36046620	      0.19825751	      2.47914005	      0.00000000	      0.00000000	     15.55201942	     -2.10673796	     -4.56115667	     32.46680228	     -7.59528932	    -71.63343089	    147.37174033	     88.78369647	    -16.97348736	     13.70676527	     25.15774973	    -22.47636451	    -62.76894703	    145.96469919	     56.44667249	    -15.37552668	      8.08629965
      0.85000000	      0.79957374	      0.16794514	     91.87510219	      0.12341771	      0.57692860	      0.84592370	     -9.26961324	      0.98154888	      6.37840273	      0.91359190	      0.01594519	     18.41397977	     -4.57267575	      0.00000000	     -5.67329012	     -2.18793512	     -9.76453733	      4.21477502	      0.07356170	     26.49287133	      6.38721223	      0.00000000	     -0.21940911	      0.02818430	      0.31162466	     -0.40746465	      0.03748512	      0.33110120	     -0.36046722	      0.06852732	      0.33110120	     -0.25076267	      0.06852732	      0.27267157	     -0.20374330	      0.05747343	      0.25319503	     -0.12537036	      0.04365749	      0.23371849	     -1.56721731	      0.31882649	      1.73316285	      0.00000000	      0.00000000	     14.85135120	     -2.18556442	     -2.66893151	     34.30223711	     -7.29320614	    -71.19297075	    149.00348640	     88.17369973	    -19.34379314	      5.26758840	     26.08124627	    -23.11643371	    -59.82282871	    148.36469080	     58.19952305	    -17.32737141	      7.20769094
      0.86666667	      0.95134292	      0.57685323	     91.93775121	      0.12327924	      0.57767818	      0.84822531	     -9.49729901	      1.16394136	      6.15127477	      0.99830094	      0.01742364	     18.30303029	     -4.40375680	      0.00000000	     -5.91690786	     -2.35122535	     -9.55048929	      4.35490968	      0.07600751	     26.33474022	      6.04901482	      0.00000000	     -0.25571792	      0.07177506	      0.14093358	     -0.47489375	      0.09546083	      0.14974193	     -0.42011897	      0.17451387	      0.14974193	     -0.29226001	      0.17451387	      0.12331688	     -0.23745966	      0.14636370	      0.11450854	     -0.14611722	      0.11117956	      0.10570019	     -1.82656753	      0.81193380	      0.78383031	      0.00000000	      0.00000000	     13.53662117	     -2.49706201	     -0.61986218	     36.36734755	     -6.75952685	    -70.08727293	    149.67907611	     85.03554455	    -18.10452644	     -1.34665450	     26.63761276	    -23.59467056	    -58.11310155	    149.44153705	     60.38999445	    -14.48012438	      5.48703372
